<svg xmlns="http://www.w3.org/2000/svg" xmlns:xlink="http://www.w3.org/1999/xlink" width="200" zoomAndPan="magnify" viewBox="0 0 750 749.999995" height="200" preserveAspectRatio="xMidYMid meet" version="1.0"><defs><clipPath id="id1"><path d="M 451 447 L 747 447 L 747 742.621094 L 451 742.621094 Z M 451 447 " clip-rule="nonzero"/></clipPath><clipPath id="id2"><path d="M 230 109 L 466 109 L 466 253 L 230 253 Z M 230 109 " clip-rule="nonzero"/></clipPath><clipPath id="id3"><path d="M 338.292969 51.054688 L 480.046875 235.1875 L 367.4375 321.882812 L 225.679688 137.75 Z M 338.292969 51.054688 " clip-rule="nonzero"/></clipPath><clipPath id="id4"><path d="M 338.292969 51.054688 L 480.046875 235.1875 L 367.4375 321.882812 L 225.679688 137.75 Z M 338.292969 51.054688 " clip-rule="nonzero"/></clipPath></defs><path fill="rgb(65.098572%, 65.098572%, 65.098572%)" d="M 299.070312 587.855469 C 293.070312 587.859375 287.078125 587.679688 281.089844 587.3125 C 275.105469 586.949219 269.132812 586.402344 263.179688 585.667969 C 257.226562 584.9375 251.300781 584.023438 245.402344 582.929688 C 239.503906 581.832031 233.644531 580.558594 227.824219 579.101562 C 222.007812 577.648438 216.238281 576.015625 210.519531 574.207031 C 204.800781 572.394531 199.140625 570.414062 193.542969 568.253906 C 187.945312 566.097656 182.417969 563.773438 176.964844 561.277344 C 171.511719 558.78125 166.136719 556.117188 160.847656 553.292969 C 155.554688 550.46875 150.355469 547.480469 145.246094 544.335938 C 140.140625 541.191406 135.132812 537.890625 130.226562 534.441406 C 125.324219 530.988281 120.527344 527.386719 115.84375 523.640625 C 111.160156 519.894531 106.59375 516.003906 102.148438 511.980469 C 97.703125 507.953125 93.382812 503.792969 89.195312 499.5 C 85.003906 495.207031 80.949219 490.789062 77.03125 486.25 C 73.109375 481.707031 69.335938 477.050781 65.703125 472.277344 C 62.070312 467.503906 58.585938 462.625 55.25 457.636719 C 51.917969 452.648438 48.742188 447.5625 45.71875 442.382812 C 42.699219 437.199219 39.839844 431.929688 37.140625 426.574219 C 34.441406 421.214844 31.910156 415.777344 29.546875 410.265625 C 27.183594 404.753906 24.992188 399.171875 22.96875 393.523438 C 20.949219 387.878906 19.101562 382.171875 17.429688 376.410156 C 15.757812 370.652344 14.265625 364.84375 12.953125 358.992188 C 11.636719 353.136719 10.503906 347.25 9.550781 341.328125 C 8.597656 335.40625 7.828125 329.460938 7.238281 323.488281 C 6.648438 317.519531 6.246094 311.539062 6.023438 305.542969 C 5.804688 299.550781 5.765625 293.554688 5.914062 287.554688 C 6.0625 281.558594 6.394531 275.574219 6.90625 269.597656 C 7.421875 263.621094 8.121094 257.664062 9 251.730469 C 9.882812 245.796875 10.941406 239.898438 12.183594 234.027344 C 13.429688 228.160156 14.851562 222.335938 16.449219 216.554688 C 18.050781 210.773438 19.828125 205.046875 21.777344 199.375 C 23.730469 193.703125 25.855469 188.09375 28.152344 182.554688 C 30.449219 177.011719 32.910156 171.546875 35.542969 166.15625 C 38.175781 160.765625 40.96875 155.460938 43.925781 150.242188 C 46.886719 145.023438 50 139.898438 53.273438 134.871094 C 56.542969 129.84375 59.96875 124.921875 63.542969 120.105469 C 67.117188 115.285156 70.835938 110.582031 74.699219 105.996094 C 78.5625 101.40625 82.5625 96.9375 86.699219 92.59375 C 90.835938 88.25 95.101562 84.039062 99.5 79.957031 C 103.894531 75.875 108.410156 71.933594 113.050781 68.128906 C 117.6875 64.324219 122.4375 60.667969 127.300781 57.152344 C 132.164062 53.640625 137.128906 50.28125 142.199219 47.074219 C 147.265625 43.867188 152.429688 40.816406 157.683594 37.925781 C 162.941406 35.035156 168.28125 32.308594 173.703125 29.746094 C 179.128906 27.183594 184.625 24.789062 190.195312 22.5625 C 195.765625 20.339844 201.398438 18.285156 207.097656 16.40625 C 212.792969 14.527344 218.542969 12.824219 224.34375 11.296875 C 230.144531 9.769531 235.988281 8.425781 241.871094 7.257812 C 247.753906 6.089844 253.667969 5.101562 259.613281 4.296875 C 265.558594 3.492188 271.519531 2.871094 277.503906 2.433594 C 283.484375 1.996094 289.476562 1.738281 295.476562 1.667969 C 301.472656 1.597656 307.46875 1.710938 313.457031 2.007812 C 319.449219 2.304688 325.425781 2.785156 331.386719 3.453125 C 337.351562 4.117188 343.285156 4.960938 349.195312 5.992188 C 355.105469 7.019531 360.976562 8.230469 366.8125 9.617188 C 372.648438 11.007812 378.4375 12.574219 384.175781 14.320312 C 389.914062 16.0625 395.59375 17.980469 401.214844 20.074219 C 406.839844 22.167969 412.390625 24.433594 417.871094 26.867188 C 423.355469 29.300781 428.757812 31.902344 434.082031 34.667969 C 439.402344 37.433594 444.636719 40.359375 449.78125 43.445312 C 454.921875 46.535156 459.964844 49.777344 464.910156 53.171875 C 469.855469 56.570312 474.691406 60.117188 479.417969 63.808594 C 484.144531 67.503906 488.75 71.339844 493.242188 75.316406 C 497.734375 79.292969 502.097656 83.402344 506.335938 87.648438 C 508.882812 90.191406 511.378906 92.777344 513.828125 95.414062 C 516.28125 98.046875 518.679688 100.726562 521.03125 103.449219 C 523.382812 106.171875 525.683594 108.9375 527.933594 111.742188 C 530.183594 114.550781 532.378906 117.398438 534.523438 120.289062 C 536.667969 123.175781 538.757812 126.101562 540.796875 129.070312 C 542.832031 132.035156 544.8125 135.035156 546.742188 138.074219 C 548.667969 141.113281 550.535156 144.1875 552.347656 147.292969 C 554.160156 150.402344 555.917969 153.542969 557.613281 156.714844 C 559.3125 159.886719 560.949219 163.085938 562.527344 166.320312 C 564.109375 169.550781 565.628906 172.8125 567.085938 176.101562 C 568.546875 179.390625 569.945312 182.703125 571.28125 186.042969 C 572.617188 189.382812 573.894531 192.746094 575.105469 196.132812 C 576.320312 199.519531 577.46875 202.929688 578.558594 206.359375 C 579.644531 209.789062 580.667969 213.234375 581.628906 216.703125 C 582.589844 220.167969 583.484375 223.652344 584.316406 227.152344 C 585.148438 230.652344 585.917969 234.167969 586.621094 237.695312 C 587.324219 241.222656 587.960938 244.761719 588.53125 248.316406 C 589.105469 251.867188 589.613281 255.429688 590.050781 259 C 590.492188 262.570312 590.867188 266.144531 591.179688 269.730469 C 591.488281 273.316406 591.730469 276.902344 591.90625 280.496094 C 592.085938 284.089844 592.195312 287.683594 592.238281 291.28125 C 592.285156 294.878906 592.261719 298.476562 592.175781 302.074219 C 592.085938 305.667969 591.933594 309.261719 591.710938 312.855469 C 591.492188 316.445312 591.207031 320.03125 590.855469 323.609375 C 590.5 327.191406 590.082031 330.765625 589.597656 334.328125 C 589.113281 337.894531 588.566406 341.449219 587.949219 344.992188 C 587.335938 348.539062 586.65625 352.070312 585.910156 355.589844 C 585.164062 359.109375 584.355469 362.613281 583.480469 366.101562 C 582.605469 369.59375 581.667969 373.066406 580.667969 376.519531 C 579.664062 379.976562 578.597656 383.410156 577.46875 386.828125 C 576.339844 390.242188 575.148438 393.636719 573.894531 397.007812 C 572.640625 400.382812 571.328125 403.730469 569.949219 407.050781 C 568.574219 410.375 567.132812 413.671875 565.636719 416.945312 C 564.136719 420.214844 562.578125 423.457031 560.960938 426.667969 C 559.34375 429.882812 557.667969 433.066406 555.929688 436.214844 C 554.195312 439.367188 552.402344 442.484375 550.550781 445.570312 C 548.703125 448.65625 546.796875 451.707031 544.832031 454.722656 C 542.871094 457.738281 540.855469 460.714844 538.78125 463.65625 C 536.710938 466.597656 534.582031 469.5 532.402344 472.359375 C 530.226562 475.222656 527.992188 478.042969 525.710938 480.824219 C 523.425781 483.605469 521.09375 486.34375 518.710938 489.035156 C 516.324219 491.730469 513.894531 494.378906 511.410156 496.984375 C 508.929688 499.589844 506.402344 502.148438 503.824219 504.660156 C 501.25 507.171875 498.628906 509.632812 495.960938 512.050781 C 493.296875 514.464844 490.585938 516.828125 487.832031 519.144531 C 485.078125 521.457031 482.28125 523.722656 479.445312 525.933594 C 476.609375 528.148438 473.730469 530.304688 470.8125 532.410156 C 467.898438 534.519531 464.941406 536.570312 461.949219 538.566406 C 458.957031 540.5625 455.929688 542.503906 452.867188 544.390625 C 449.804688 546.277344 446.707031 548.105469 443.574219 549.878906 C 440.445312 551.648438 437.28125 553.363281 434.085938 555.015625 C 430.890625 556.671875 427.667969 558.269531 424.414062 559.804688 C 421.164062 561.339844 417.882812 562.816406 414.574219 564.230469 C 411.265625 565.648438 407.933594 567 404.578125 568.292969 C 401.21875 569.585938 397.839844 570.816406 394.4375 571.984375 C 391.035156 573.152344 387.613281 574.257812 384.167969 575.300781 C 380.726562 576.34375 377.265625 577.320312 373.785156 578.234375 C 370.304688 579.148438 366.808594 580 363.300781 580.785156 C 359.789062 581.570312 356.265625 582.292969 352.726562 582.949219 C 349.191406 583.605469 345.640625 584.195312 342.082031 584.71875 C 338.523438 585.246094 334.957031 585.703125 331.378906 586.097656 C 327.804688 586.492188 324.222656 586.820312 320.632812 587.082031 C 317.046875 587.34375 313.453125 587.539062 309.859375 587.667969 C 306.265625 587.796875 302.667969 587.859375 299.070312 587.855469 Z M 299.070312 66.226562 C 294.699219 66.21875 290.335938 66.332031 285.972656 66.574219 C 281.609375 66.816406 277.257812 67.179688 272.917969 67.667969 C 268.574219 68.160156 264.25 68.773438 259.945312 69.511719 C 255.636719 70.25 251.355469 71.109375 247.097656 72.09375 C 242.839844 73.074219 238.617188 74.179688 234.421875 75.40625 C 230.226562 76.628906 226.074219 77.976562 221.957031 79.4375 C 217.839844 80.902344 213.769531 82.480469 209.742188 84.179688 C 205.714844 85.875 201.742188 87.6875 197.820312 89.613281 C 193.894531 91.535156 190.03125 93.570312 186.226562 95.71875 C 182.421875 97.863281 178.679688 100.117188 175.003906 102.476562 C 171.324219 104.839844 167.71875 107.300781 164.183594 109.871094 C 160.648438 112.4375 157.191406 115.101562 153.808594 117.867188 C 150.425781 120.632812 147.125 123.496094 143.90625 126.449219 C 140.6875 129.402344 137.554688 132.449219 134.511719 135.582031 C 131.46875 138.714844 128.515625 141.9375 125.65625 145.238281 C 122.796875 148.542969 120.035156 151.925781 117.367188 155.386719 C 114.703125 158.847656 112.136719 162.382812 109.675781 165.992188 C 107.210938 169.601562 104.855469 173.277344 102.601562 177.019531 C 100.347656 180.765625 98.207031 184.570312 96.171875 188.4375 C 94.136719 192.304688 92.214844 196.226562 90.40625 200.203125 C 88.597656 204.179688 86.902344 208.203125 85.324219 212.277344 C 83.746094 216.351562 82.285156 220.46875 80.941406 224.625 C 79.597656 228.785156 78.375 232.976562 77.273438 237.203125 C 76.171875 241.433594 75.1875 245.6875 74.332031 249.972656 C 73.472656 254.257812 72.738281 258.5625 72.125 262.886719 C 71.511719 267.214844 71.027344 271.554688 70.664062 275.90625 C 70.300781 280.261719 70.0625 284.621094 69.949219 288.992188 C 69.835938 293.359375 69.847656 297.726562 69.984375 302.09375 C 70.121094 306.460938 70.382812 310.820312 70.769531 315.171875 C 71.15625 319.523438 71.667969 323.859375 72.304688 328.183594 C 72.941406 332.507812 73.699219 336.808594 74.582031 341.085938 C 75.464844 345.367188 76.46875 349.617188 77.59375 353.835938 C 78.71875 358.058594 79.964844 362.246094 81.332031 366.394531 C 82.695312 370.546875 84.179688 374.652344 85.78125 378.71875 C 87.382812 382.785156 89.097656 386.800781 90.929688 390.765625 C 92.761719 394.734375 94.703125 398.644531 96.757812 402.5 C 98.816406 406.355469 100.980469 410.148438 103.253906 413.882812 C 105.523438 417.613281 107.902344 421.277344 110.386719 424.871094 C 112.867188 428.464844 115.453125 431.988281 118.136719 435.433594 C 120.824219 438.882812 123.605469 442.25 126.480469 445.535156 C 129.359375 448.824219 132.328125 452.027344 135.390625 455.144531 C 138.453125 458.261719 141.597656 461.289062 144.835938 464.226562 C 148.070312 467.164062 151.386719 470.003906 154.78125 472.75 C 158.179688 475.496094 161.652344 478.144531 165.203125 480.691406 C 168.753906 483.242188 172.371094 485.683594 176.0625 488.023438 C 179.75 490.367188 183.503906 492.597656 187.324219 494.722656 C 191.140625 496.847656 195.015625 498.863281 198.949219 500.765625 C 202.882812 502.667969 206.867188 504.457031 210.902344 506.132812 C 214.9375 507.808594 219.015625 509.367188 223.140625 510.804688 C 227.265625 512.246094 231.429688 513.570312 235.628906 514.769531 C 239.828125 515.972656 244.0625 517.054688 248.324219 518.015625 C 252.585938 518.972656 256.871094 519.8125 261.183594 520.523438 C 265.492188 521.238281 269.820312 521.828125 274.164062 522.292969 C 278.507812 522.761719 282.863281 523.101562 287.226562 523.320312 C 291.589844 523.535156 295.957031 523.625 300.328125 523.59375 C 304.695312 523.558594 309.058594 523.398438 313.421875 523.117188 C 317.78125 522.832031 322.128906 522.421875 326.464844 521.890625 C 330.800781 521.355469 335.121094 520.699219 339.417969 519.917969 C 343.71875 519.136719 347.992188 518.234375 352.238281 517.210938 C 356.484375 516.183594 360.699219 515.039062 364.878906 513.769531 C 369.0625 512.503906 373.203125 511.117188 377.304688 509.613281 C 381.40625 508.109375 385.460938 506.488281 389.472656 504.75 C 393.480469 503.015625 397.4375 501.164062 401.339844 499.199219 C 405.242188 497.234375 409.085938 495.160156 412.871094 492.976562 C 416.65625 490.792969 420.375 488.503906 424.027344 486.105469 C 427.679688 483.710938 431.261719 481.210938 434.769531 478.605469 C 438.28125 476.003906 441.710938 473.304688 445.066406 470.503906 C 448.421875 467.707031 451.691406 464.8125 454.882812 461.824219 C 458.070312 458.839844 461.171875 455.761719 464.183594 452.597656 C 467.199219 449.433594 470.117188 446.1875 472.945312 442.855469 C 475.769531 439.523438 478.5 436.113281 481.128906 432.625 C 483.761719 429.136719 486.289062 425.574219 488.71875 421.941406 C 491.144531 418.308594 493.464844 414.609375 495.679688 410.84375 C 497.894531 407.078125 500 403.25 501.996094 399.363281 C 503.992188 395.476562 505.875 391.535156 507.644531 387.542969 C 509.414062 383.546875 511.066406 379.503906 512.605469 375.414062 C 514.144531 371.324219 515.5625 367.195312 516.863281 363.023438 C 518.164062 358.855469 519.347656 354.648438 520.40625 350.410156 C 521.46875 346.171875 522.40625 341.90625 523.222656 337.613281 C 524.035156 333.320312 524.730469 329.007812 525.296875 324.675781 C 525.867188 320.34375 526.308594 316 526.628906 311.644531 C 526.949219 307.285156 527.144531 302.921875 527.214844 298.554688 C 527.285156 294.183594 527.226562 289.816406 527.046875 285.453125 C 526.867188 281.085938 526.5625 276.730469 526.128906 272.382812 C 525.699219 268.035156 525.144531 263.703125 524.464844 259.386719 C 523.789062 255.070312 522.984375 250.777344 522.0625 246.507812 C 521.136719 242.238281 520.089844 237.996094 518.921875 233.785156 C 517.753906 229.578125 516.464844 225.402344 515.058594 221.265625 C 513.652344 217.128906 512.128906 213.039062 510.488281 208.988281 C 508.84375 204.9375 507.089844 200.941406 505.21875 196.992188 C 503.347656 193.042969 501.363281 189.152344 499.269531 185.316406 C 497.175781 181.484375 494.972656 177.710938 492.664062 174.003906 C 490.355469 170.292969 487.941406 166.65625 485.421875 163.085938 C 482.902344 159.515625 480.285156 156.019531 477.566406 152.597656 C 474.847656 149.179688 472.03125 145.839844 469.121094 142.582031 C 466.210938 139.320312 463.207031 136.148438 460.117188 133.0625 C 454.84375 127.785156 449.324219 122.78125 443.558594 118.042969 C 437.792969 113.308594 431.808594 108.867188 425.605469 104.71875 C 419.40625 100.570312 413.015625 96.738281 406.4375 93.214844 C 399.859375 89.695312 393.125 86.503906 386.234375 83.644531 C 379.34375 80.785156 372.328125 78.269531 365.191406 76.097656 C 358.050781 73.925781 350.824219 72.109375 343.507812 70.648438 C 336.191406 69.1875 328.820312 68.085938 321.398438 67.347656 C 313.972656 66.609375 306.53125 66.234375 299.070312 66.226562 Z M 299.070312 66.226562 " fill-opacity="1" fill-rule="nonzero"/><g clip-path="url(#id1)"><path fill="rgb(65.098572%, 65.098572%, 65.098572%)" d="M 714.570312 742.621094 C 712.457031 742.613281 710.367188 742.398438 708.296875 741.980469 C 706.230469 741.558594 704.21875 740.941406 702.273438 740.125 C 700.324219 739.3125 698.476562 738.316406 696.722656 737.136719 C 694.972656 735.957031 693.351562 734.617188 691.863281 733.121094 L 460.761719 502.179688 C 460.015625 501.433594 459.304688 500.652344 458.636719 499.835938 C 457.96875 499.023438 457.339844 498.175781 456.753906 497.296875 C 456.167969 496.417969 455.625 495.515625 455.125 494.585938 C 454.628906 493.652344 454.179688 492.699219 453.773438 491.726562 C 453.371094 490.75 453.015625 489.757812 452.710938 488.746094 C 452.402344 487.738281 452.148438 486.714844 451.941406 485.679688 C 451.734375 484.644531 451.582031 483.601562 451.476562 482.550781 C 451.375 481.5 451.320312 480.449219 451.320312 479.394531 C 451.320312 478.335938 451.375 477.285156 451.476562 476.234375 C 451.582031 475.183594 451.734375 474.140625 451.941406 473.105469 C 452.148438 472.070312 452.402344 471.046875 452.710938 470.039062 C 453.015625 469.027344 453.371094 468.035156 453.773438 467.058594 C 454.179688 466.085938 454.628906 465.132812 455.125 464.199219 C 455.625 463.269531 456.167969 462.367188 456.753906 461.488281 C 457.339844 460.609375 457.96875 459.765625 458.636719 458.949219 C 459.304688 458.132812 460.015625 457.351562 460.761719 456.605469 C 461.507812 455.859375 462.289062 455.148438 463.105469 454.480469 C 463.921875 453.8125 464.765625 453.183594 465.644531 452.597656 C 466.523438 452.011719 467.425781 451.46875 468.355469 450.972656 C 469.289062 450.472656 470.242188 450.023438 471.214844 449.617188 C 472.191406 449.214844 473.183594 448.859375 474.195312 448.554688 C 475.203125 448.246094 476.226562 447.992188 477.261719 447.785156 C 478.296875 447.578125 479.339844 447.425781 480.390625 447.320312 C 481.441406 447.21875 482.492188 447.164062 483.546875 447.164062 C 484.605469 447.164062 485.65625 447.21875 486.707031 447.320312 C 487.757812 447.425781 488.800781 447.578125 489.835938 447.785156 C 490.871094 447.992188 491.894531 448.246094 492.902344 448.554688 C 493.914062 448.859375 494.90625 449.214844 495.882812 449.617188 C 496.855469 450.023438 497.808594 450.472656 498.742188 450.972656 C 499.671875 451.46875 500.574219 452.011719 501.453125 452.597656 C 502.332031 453.183594 503.175781 453.8125 503.992188 454.480469 C 504.808594 455.148438 505.589844 455.859375 506.335938 456.605469 L 737.277344 687.707031 C 738.390625 688.824219 739.414062 690.019531 740.351562 691.292969 C 741.289062 692.5625 742.128906 693.894531 742.871094 695.289062 C 743.613281 696.683594 744.25 698.125 744.777344 699.613281 C 745.308594 701.101562 745.726562 702.617188 746.03125 704.167969 C 746.339844 705.714844 746.53125 707.28125 746.605469 708.855469 C 746.683594 710.433594 746.644531 712.007812 746.488281 713.578125 C 746.332031 715.152344 746.0625 716.703125 745.679688 718.234375 C 745.296875 719.765625 744.804688 721.261719 744.199219 722.722656 C 743.597656 724.179688 742.890625 725.589844 742.078125 726.941406 C 741.269531 728.296875 740.363281 729.585938 739.363281 730.808594 C 738.363281 732.03125 737.28125 733.175781 736.113281 734.238281 C 734.945312 735.300781 733.703125 736.269531 732.394531 737.152344 C 731.082031 738.03125 729.714844 738.8125 728.289062 739.492188 C 726.863281 740.171875 725.394531 740.742188 723.886719 741.207031 C 722.375 741.667969 720.839844 742.019531 719.28125 742.257812 C 717.71875 742.496094 716.148438 742.617188 714.570312 742.621094 Z M 714.570312 742.621094 " fill-opacity="1" fill-rule="nonzero"/></g><g clip-path="url(#id2)"><g clip-path="url(#id3)"><g clip-path="url(#id4)"><path fill="rgb(65.098572%, 65.098572%, 65.098572%)" d="M 301.808594 137.824219 C 303.539062 137.65625 305.527344 137.519531 307.253906 137.347656 C 309.355469 137.359375 311.570312 137.511719 313.671875 137.523438 L 314.042969 137.703125 C 316.511719 137.890625 319.128906 137.964844 322.117188 138.222656 C 324.589844 138.410156 327.578125 138.667969 330.273438 139.148438 C 332.859375 139.480469 335.40625 140.074219 337.699219 140.632812 L 340.507812 141.257812 C 341.652344 141.539062 343.058594 141.851562 344.429688 142.425781 C 345.6875 142.851562 347.316406 143.453125 348.945312 144.058594 C 349.683594 144.417969 350.316406 144.632812 351.054688 144.988281 C 351.796875 145.347656 352.539062 145.707031 353.425781 145.953125 C 355.054688 146.558594 356.539062 147.277344 357.910156 147.847656 C 360.726562 149.394531 363.660156 151.085938 366.332031 152.746094 C 368.265625 154.046875 370.195312 155.347656 371.871094 156.617188 C 373.0625 157.558594 374.140625 158.355469 375.476562 159.183594 C 376.070312 159.65625 376.554688 159.980469 377.296875 160.339844 C 378.261719 160.992188 379.226562 161.640625 380.195312 162.292969 C 381.386719 163.234375 382.574219 164.175781 383.652344 164.972656 L 384.621094 165.625 L 385.585938 166.273438 C 386.777344 167.214844 387.96875 168.160156 389.269531 169.246094 C 390.347656 170.042969 391.394531 171.097656 392.324219 172.007812 L 392.4375 172.152344 C 393.59375 173.351562 395.121094 174.734375 396.390625 176.078125 C 396.839844 176.664062 397.546875 177.28125 397.996094 177.863281 C 398.558594 178.59375 399.378906 179.355469 399.941406 180.085938 C 402.367188 182.632812 404.871094 185.585938 407.566406 189.085938 L 408.015625 189.667969 C 410.039062 192.296875 412.171875 195.066406 414.273438 198.097656 C 414.945312 198.972656 415.476562 199.960938 416.148438 200.835938 C 416.597656 201.421875 416.789062 201.96875 417.238281 202.554688 L 417.6875 203.136719 C 418.472656 204.160156 419 205.144531 419.789062 206.167969 C 420.316406 207.15625 420.957031 208.289062 421.484375 209.277344 C 421.785156 209.972656 422.347656 210.703125 422.652344 211.398438 C 423.066406 212.242188 423.628906 212.96875 423.933594 213.664062 C 424.460938 214.652344 425.132812 215.527344 425.660156 216.515625 C 426.527344 217.941406 427.246094 219.480469 427.964844 221.019531 L 428.570312 222.410156 L 428.984375 223.253906 C 429.816406 224.9375 430.761719 226.765625 431.558594 228.707031 C 432.390625 230.390625 433.074219 232.1875 433.984375 234.277344 C 434.589844 235.667969 434.9375 237.027344 435.433594 238.273438 C 435.625 238.824219 435.8125 239.375 436.003906 239.921875 C 436.542969 241.832031 437.339844 243.773438 438.027344 245.570312 C 438.40625 246.671875 439.046875 247.804688 439.429688 248.90625 L 439.734375 249.601562 C 439.8125 250.003906 440.035156 250.296875 440.261719 250.589844 C 441.496094 252.195312 443.902344 252.898438 445.808594 252.359375 C 446.328125 252.425781 446.988281 252.378906 447.539062 252.1875 C 449.449219 251.648438 451.507812 250.992188 453.707031 250.226562 C 454.664062 249.957031 455.617188 249.6875 456.316406 249.382812 L 457.125 249.226562 C 457.933594 249.066406 458.628906 248.761719 459.324219 248.460938 C 460.023438 248.15625 460.832031 247.996094 461.785156 247.726562 C 463.550781 247.300781 464.820312 245.625 465.089844 243.558594 L 465.335938 242.671875 C 465.582031 241.78125 465.425781 240.972656 465.15625 240.019531 L 465.113281 239.359375 C 464.84375 238.402344 464.71875 237.335938 464.449219 236.382812 C 464.179688 235.425781 463.796875 234.328125 463.640625 233.519531 C 463.339844 232.824219 463.070312 231.867188 462.910156 231.058594 L 462.53125 229.960938 C 462.261719 229.003906 461.84375 228.164062 461.542969 227.46875 C 461.464844 227.0625 461.238281 226.769531 461.160156 226.367188 C 460.664062 225.121094 460.171875 223.875 459.675781 222.628906 C 459.105469 220.976562 458.417969 219.183594 457.699219 217.644531 C 457.09375 216.25 456.488281 214.859375 455.882812 213.46875 C 455.050781 211.785156 454.367188 209.988281 453.679688 208.191406 C 452.421875 204.746094 450.46875 201.601562 448.773438 198.492188 L 448.246094 197.503906 C 447.828125 196.664062 447.15625 195.789062 446.738281 194.945312 C 445.570312 192.824219 444.292969 190.554688 442.863281 188.402344 L 442.527344 187.964844 C 440.875 185.515625 439.257812 182.8125 437.460938 180.476562 C 436.902344 179.75 436.226562 178.871094 435.664062 178.144531 C 434.542969 176.683594 433.308594 175.078125 432.328125 173.507812 L 431.65625 172.632812 C 430.980469 171.757812 430.453125 170.769531 429.78125 169.894531 C 429.667969 169.75 429.667969 169.75 429.554688 169.601562 C 428.65625 168.433594 427.644531 167.121094 426.375 165.777344 C 424.320312 163.40625 422.230469 161.296875 420.175781 158.929688 L 419.246094 158.023438 C 417.636719 156.238281 416.257812 154.746094 414.730469 153.363281 C 413.539062 152.421875 412.492188 151.367188 411.191406 150.28125 L 410.078125 149.742188 C 409.371094 149.125 408.777344 148.652344 408.066406 148.035156 C 405.832031 146.039062 403.339844 144.007812 400.957031 142.125 C 398.316406 140.207031 395.679688 138.289062 393.039062 136.371094 C 392.554688 136.046875 392.183594 135.867188 391.703125 135.539062 C 385.308594 131.167969 380.074219 127.992188 374.886719 125.480469 C 371.695312 123.753906 368.585938 122.433594 365.585938 121.257812 C 364.84375 120.898438 363.957031 120.652344 363.214844 120.292969 C 362.472656 119.933594 361.84375 119.722656 361.101562 119.363281 C 359.472656 118.757812 357.957031 118.300781 356.585938 117.726562 L 355.957031 117.515625 L 356.585938 117.726562 C 354.328125 116.910156 352.039062 116.351562 349.890625 115.679688 C 348.746094 115.398438 347.601562 115.117188 346.601562 114.726562 C 343.308594 113.777344 339.871094 112.9375 336.03125 112.175781 C 332.703125 111.484375 329.199219 111.160156 325.175781 110.769531 C 322.59375 110.4375 319.203125 110.261719 315.695312 109.9375 C 312.964844 109.714844 309.945312 109.71875 306.261719 109.765625 C 304.160156 109.757812 302.171875 109.894531 300.183594 110.03125 L 298.015625 110.539062 L 297.351562 110.582031 C 296.171875 110.5625 294.957031 110.800781 293.777344 110.777344 C 292.453125 110.867188 291.09375 111.21875 289.769531 111.308594 L 289.21875 111.5 L 288.152344 111.625 C 286.679688 111.828125 285.0625 112.144531 283.441406 112.460938 C 283.183594 112.425781 283.039062 112.539062 282.632812 112.617188 C 281.824219 112.777344 281.164062 112.820312 280.464844 113.125 L 280.320312 113.238281 C 279.367188 113.507812 278.296875 113.632812 277.230469 113.757812 C 274.949219 114.121094 272.929688 114.515625 270.613281 115.132812 C 269.109375 115.597656 267.714844 116.203125 266.355469 116.554688 C 265.109375 117.046875 264.007812 117.429688 262.648438 117.78125 C 260.738281 118.320312 258.90625 119.265625 257.109375 119.953125 L 256.414062 120.257812 C 255.570312 120.671875 254.761719 120.832031 253.917969 121.25 C 252.269531 121.824219 250.582031 122.65625 248.898438 123.488281 C 248.460938 123.824219 248.054688 123.902344 247.617188 124.242188 C 247.324219 124.464844 246.921875 124.546875 246.628906 124.769531 L 246.222656 124.847656 C 245.671875 125.039062 245.234375 125.378906 244.832031 125.457031 C 242.59375 126.480469 240.324219 127.761719 238.054688 129.046875 C 237.066406 129.574219 236.191406 130.25 235.316406 130.921875 C 235.023438 131.148438 234.730469 131.375 234.4375 131.597656 L 234.144531 131.824219 C 234 131.9375 233.855469 132.046875 233.5625 132.273438 C 232.683594 132.949219 232.066406 133.65625 231.414062 134.621094 C 231.089844 135.105469 230.875 135.734375 230.921875 136.398438 C 230.886719 136.65625 230.742188 136.769531 230.855469 136.914062 C 230.785156 137.429688 230.863281 137.835938 230.796875 138.351562 C 230.808594 139.273438 231.113281 139.96875 231.671875 140.699219 C 231.898438 140.988281 231.976562 141.394531 232.054688 141.796875 C 232.246094 142.347656 232.324219 142.753906 232.660156 143.191406 C 233.191406 144.179688 233.570312 145.277344 234.097656 146.265625 L 234.402344 146.960938 C 234.59375 147.511719 234.894531 148.207031 235.234375 148.644531 C 235.457031 148.9375 235.425781 149.195312 235.648438 149.488281 L 235.875 149.78125 L 236.097656 150.070312 L 236.324219 150.363281 C 236.433594 150.507812 236.515625 150.914062 236.625 151.058594 C 237.042969 151.902344 237.199219 152.710938 237.761719 153.4375 C 238.660156 154.605469 239.738281 155.402344 241.027344 155.570312 C 242.0625 155.703125 242.984375 155.691406 243.972656 155.164062 C 244.375 155.082031 244.78125 155.003906 245.074219 154.78125 C 246.207031 154.140625 247.195312 153.609375 248.332031 152.96875 C 248.769531 152.632812 249.320312 152.441406 249.90625 151.992188 C 251.589844 151.15625 253.273438 150.324219 255.363281 149.414062 C 257.160156 148.726562 258.992188 147.78125 261.632812 146.679688 C 263.722656 145.765625 265.925781 145 267.980469 144.347656 C 268.53125 144.15625 268.9375 144.078125 269.488281 143.886719 L 271.800781 143.265625 C 274.113281 142.644531 276.429688 142.027344 278.890625 141.292969 C 280.394531 140.832031 282.011719 140.515625 283.628906 140.199219 C 285.25 139.882812 286.976562 139.714844 288.597656 139.398438 L 289.257812 139.351562 C 292.203125 138.945312 295.550781 138.460938 298.605469 138.199219 C 299.269531 138.152344 300.480469 137.917969 301.808594 137.824219 Z M 301.808594 137.824219 " fill-opacity="1" fill-rule="nonzero"/></g></g></g></svg>